<?xml version="1.0" encoding="utf-8"?>
<!-- Generator: Adobe Illustrator 16.0.0, SVG Export Plug-In . SVG Version: 6.00 Build 0)  -->
<!DOCTYPE svg PUBLIC "-//W3C//DTD SVG 1.1//EN" "http://www.w3.org/Graphics/SVG/1.1/DTD/svg11.dtd">
<svg version="1.1" id="Layer_1" xmlns="http://www.w3.org/2000/svg" xmlns:xlink="http://www.w3.org/1999/xlink" x="0px" y="0px"
	 width="988.337px" height="94.122px" viewBox="0 0 988.337 94.122" enable-background="new 0 0 988.337 94.122"
	 xml:space="preserve">
<path fill="#FFFFFF" d="M916.391,12.222V2.142h71.946v10.08h-29.988v79.885h-11.97V12.222H916.391z M889.805,2.142l35.154,89.965
	h-13.23l-9.827-27.091h-38.053l-10.08,27.091h-12.222l35.028-89.965H889.805z M898.121,54.937l-14.994-41.958h-0.252l-15.246,41.958
	H898.121z M755.239,2.142l28.35,75.601l28.476-75.601h16.381v89.965h-11.34V17.262h-0.253l-28.098,74.845h-10.206l-28.098-74.845
	h-0.252v74.845h-11.34V2.142H755.239z M693.373,42.966c2.52-0.419,4.725-1.237,6.615-2.457c1.89-1.217,3.401-2.854,4.536-4.914
	c1.134-2.057,1.7-4.725,1.7-8.001c0-4.536-1.26-8.23-3.779-11.088c-2.521-2.854-6.596-4.284-12.223-4.284h-29.735v31.374h24.947
	C688.207,43.596,690.853,43.387,693.373,42.966 M690.853,2.142c8.568,0,15.267,2.102,20.098,6.301
	c4.829,4.201,7.245,9.954,7.245,17.262c0,5.461-1.24,10.249-3.718,14.364c-2.479,4.117-6.447,6.93-11.906,8.441v0.252
	c2.603,0.504,4.725,1.346,6.362,2.521c1.639,1.177,2.939,2.583,3.906,4.221c0.965,1.638,1.679,3.465,2.143,5.481
	c0.461,2.016,0.818,4.116,1.07,6.3c0.167,2.185,0.293,4.41,0.378,6.678c0.083,2.269,0.293,4.495,0.63,6.678
	c0.336,2.186,0.819,4.265,1.449,6.237c0.63,1.976,1.575,3.717,2.835,5.229h-13.355c-0.841-0.924-1.408-2.184-1.701-3.78
	c-0.295-1.595-0.484-3.38-0.567-5.355c-0.085-1.973-0.169-4.095-0.252-6.362c-0.085-2.269-0.337-4.493-0.756-6.679
	c-0.337-2.183-0.756-4.262-1.26-6.236c-0.504-1.974-1.303-3.695-2.395-5.166c-1.093-1.47-2.52-2.646-4.283-3.528
	c-1.765-0.882-4.117-1.323-7.057-1.323h-29.231v38.431h-11.971V2.142H690.853z M549.167,29.421
	c1.805-5.67,4.514-10.688,8.127-15.057c3.61-4.367,8.105-7.854,13.482-10.458C576.15,1.303,582.409,0,589.55,0
	c7.138,0,13.397,1.303,18.774,3.906c5.374,2.604,9.869,6.091,13.481,10.458c3.61,4.369,6.319,9.387,8.127,15.057
	c1.806,5.67,2.709,11.572,2.709,17.703c0,6.133-0.903,12.033-2.709,17.703c-1.808,5.67-4.517,10.689-8.127,15.057
	c-3.612,4.369-8.107,7.834-13.481,10.396c-5.377,2.561-11.637,3.843-18.774,3.843c-7.141,0-13.399-1.282-18.773-3.843
	c-5.377-2.562-9.872-6.026-13.482-10.396c-3.613-4.367-6.322-9.387-8.127-15.057c-1.808-5.67-2.709-11.57-2.709-17.703
	C546.458,40.993,547.359,35.091,549.167,29.421 M560.192,60.543c1.175,4.41,3.023,8.379,5.544,11.907
	c2.52,3.528,5.752,6.363,9.701,8.505c3.947,2.142,8.65,3.213,14.112,3.213c5.459,0,10.162-1.071,14.112-3.213
	c3.947-2.142,7.182-4.977,9.702-8.505c2.52-3.528,4.366-7.497,5.544-11.907c1.175-4.41,1.764-8.883,1.764-13.419
	s-0.589-9.009-1.764-13.419c-1.178-4.41-3.024-8.379-5.544-11.907c-2.521-3.527-5.755-6.362-9.702-8.505
	c-3.95-2.142-8.653-3.213-14.112-3.213c-5.462,0-10.165,1.071-14.112,3.213c-3.949,2.143-7.182,4.978-9.701,8.505
	c-2.521,3.528-4.369,7.497-5.544,11.907c-1.179,4.41-1.765,8.883-1.765,13.419S559.014,56.133,560.192,60.543 M534.489,2.142v10.08
	h-47.124v28.603h41.328v10.08h-41.328v41.202h-11.971V2.142H534.489z M417.94,2.142v10.08h-50.148v28.603h46.746v10.08h-46.746
	v31.122h50.526v10.08h-62.496V2.142H417.94z M315.44,14.427c-3.991-2.897-9.095-4.347-15.31-4.347c-2.52,0-4.999,0.252-7.434,0.756
	c-2.438,0.504-4.6,1.345-6.489,2.521c-1.89,1.177-3.402,2.752-4.536,4.725c-1.134,1.975-1.701,4.432-1.701,7.371
	c0,2.771,0.819,5.02,2.457,6.741c1.639,1.723,3.821,3.13,6.553,4.221c2.728,1.093,5.814,1.996,9.261,2.709
	c3.442,0.715,6.949,1.492,10.521,2.331c3.569,0.841,7.075,1.827,10.521,2.961c3.442,1.134,6.529,2.668,9.261,4.599
	c2.728,1.934,4.914,4.369,6.552,7.309c1.639,2.94,2.457,6.637,2.457,11.088c0,4.788-1.07,8.883-3.213,12.285
	c-2.142,3.401-4.895,6.174-8.253,8.315c-3.361,2.143-7.119,3.697-11.277,4.662c-4.157,0.965-8.297,1.449-12.41,1.449
	c-5.04,0-9.81-0.63-14.302-1.89c-4.495-1.261-8.441-3.17-11.844-5.733c-3.402-2.561-6.092-5.837-8.063-9.828
	c-1.976-3.989-2.962-8.714-2.962-14.175h11.341c0,3.78,0.733,7.036,2.205,9.765c1.468,2.731,3.401,4.978,5.796,6.741
	c2.394,1.764,5.185,3.067,8.379,3.906c3.19,0.841,6.467,1.26,9.828,1.26c2.687,0,5.396-0.252,8.127-0.756
	c2.728-0.504,5.185-1.364,7.371-2.583c2.183-1.217,3.946-2.876,5.292-4.977c1.342-2.1,2.016-4.788,2.016-8.064
	c0-3.107-0.819-5.627-2.457-7.56c-1.638-1.932-3.824-3.507-6.552-4.726c-2.731-1.217-5.818-2.205-9.262-2.961
	c-3.445-0.756-6.951-1.532-10.521-2.331c-3.572-0.797-7.078-1.721-10.521-2.771c-3.445-1.05-6.532-2.436-9.261-4.158
	c-2.73-1.721-4.914-3.947-6.552-6.678c-1.638-2.729-2.457-6.152-2.457-10.27c0-4.536,0.923-8.462,2.772-11.781
	c1.846-3.316,4.303-6.048,7.37-8.189c3.065-2.143,6.553-3.737,10.458-4.788C292.508,0.526,296.518,0,300.635,0
	c4.618,0,8.902,0.547,12.853,1.638c3.946,1.094,7.412,2.815,10.395,5.166c2.98,2.354,5.333,5.314,7.056,8.884
	c1.721,3.57,2.665,7.834,2.836,12.788h-11.341C321.759,22.009,319.428,17.325,315.44,14.427 M168.524,29.421
	c1.806-5.67,4.515-10.688,8.127-15.057c3.611-4.367,8.106-7.854,13.482-10.458C195.508,1.303,201.767,0,208.907,0
	c7.139,0,13.398,1.303,18.774,3.906c5.375,2.604,9.87,6.091,13.482,10.458c3.611,4.369,6.32,9.387,8.127,15.057
	c1.806,5.67,2.709,11.572,2.709,17.703c0,6.133-0.903,12.033-2.709,17.703c-1.807,5.67-4.516,10.689-8.127,15.057
	c-3.612,4.369-8.107,7.834-13.482,10.396c-5.376,2.561-11.635,3.843-18.774,3.843c-7.14,0-13.399-1.282-18.774-3.843
	c-5.376-2.562-9.871-6.026-13.482-10.396c-3.612-4.367-6.321-9.387-8.127-15.057c-1.807-5.67-2.709-11.57-2.709-17.703
	C165.815,40.993,166.717,35.091,168.524,29.421 M179.549,60.543c1.176,4.41,3.024,8.379,5.544,11.907s5.753,6.363,9.702,8.505
	c3.948,2.142,8.651,3.213,14.112,3.213c5.46,0,10.163-1.071,14.112-3.213c3.948-2.142,7.182-4.977,9.702-8.505
	s4.367-7.497,5.544-11.907c1.176-4.41,1.764-8.883,1.764-13.419s-0.588-9.009-1.764-13.419c-1.177-4.41-3.024-8.379-5.544-11.907
	c-2.52-3.527-5.754-6.362-9.702-8.505c-3.949-2.142-8.652-3.213-14.112-3.213c-5.461,0-10.164,1.071-14.112,3.213
	c-3.949,2.143-7.182,4.978-9.702,8.505c-2.52,3.528-4.368,7.497-5.544,11.907c-1.177,4.41-1.764,8.883-1.764,13.419
	S178.372,56.133,179.549,60.543 M68.985,29.421c1.805-5.67,4.514-10.688,8.127-15.057c3.611-4.367,8.105-7.854,13.482-10.458
	C95.969,1.303,102.227,0,109.368,0c7.139,0,13.397,1.303,18.774,3.906c5.375,2.604,9.869,6.091,13.482,10.458
	c3.611,4.369,6.32,9.387,8.127,15.057c1.805,5.67,2.709,11.572,2.709,17.703c0,6.133-0.904,12.033-2.709,17.703
	c-1.807,5.67-4.516,10.689-8.127,15.057c-3.613,4.369-8.107,7.834-13.482,10.396c-5.377,2.561-11.635,3.843-18.774,3.843
	c-7.141,0-13.399-1.282-18.774-3.843c-5.377-2.562-9.871-6.026-13.482-10.396c-3.613-4.367-6.322-9.387-8.127-15.057
	c-1.807-5.67-2.709-11.57-2.709-17.703C66.276,40.993,67.178,35.091,68.985,29.421 M80.01,60.543
	c1.175,4.41,3.024,8.379,5.544,11.907s5.753,6.363,9.702,8.505c3.947,2.142,8.651,3.213,14.112,3.213
	c5.459,0,10.163-1.071,14.112-3.213c3.947-2.142,7.182-4.977,9.702-8.505s4.367-7.497,5.544-11.907
	c1.175-4.41,1.764-8.883,1.764-13.419s-0.589-9.009-1.764-13.419c-1.177-4.41-3.024-8.379-5.544-11.907
	c-2.52-3.527-5.755-6.362-9.702-8.505c-3.949-2.142-8.653-3.213-14.112-3.213c-5.461,0-10.165,1.071-14.112,3.213
	c-3.949,2.143-7.182,4.978-9.702,8.505c-2.52,3.528-4.369,7.497-5.544,11.907c-1.177,4.41-1.764,8.883-1.764,13.419
	S78.833,56.133,80.01,60.543 M11.97,2.142v79.885h47.628v10.08H0V2.142H11.97z"/>
</svg>
