<?xml version="1.0" encoding="utf-8"?>
<!-- Generator: Adobe Illustrator 19.0.0, SVG Export Plug-In . SVG Version: 6.00 Build 0)  -->
<svg version="1.1" id="Layer_1" xmlns="http://www.w3.org/2000/svg" xmlns:xlink="http://www.w3.org/1999/xlink" x="0px" y="0px"
	 viewBox="0 0 988.337 94.122" enable-background="new 0 0 988.337 94.122" xml:space="preserve">
<g>
	<defs>
		<rect id="SVGID_1_" x="0" y="0" width="988.337" height="94.122"/>
	</defs>
	<clipPath id="SVGID_2_">
		<use xlink:href="#SVGID_1_"  overflow="visible"/>
	</clipPath>
	<path clip-path="url(#SVGID_2_)" fill="#FFFFFF" d="M916.391,12.222V2.142h71.946v10.08h-29.988v79.884h-11.97V12.222H916.391z
		 M889.805,2.142l35.154,89.964h-13.23l-9.828-27.09h-38.052l-10.08,27.09h-12.222l35.028-89.964H889.805z M898.121,54.936
		l-14.994-41.958h-0.252l-15.246,41.958H898.121z M755.239,2.142l28.35,75.6l28.476-75.6h16.38v89.964h-11.34V17.262h-0.252
		l-28.098,74.844h-10.206l-28.098-74.844h-0.252v74.844h-11.34V2.142H755.239z M693.373,42.966c2.52-0.419,4.725-1.238,6.615-2.457
		c1.89-1.217,3.402-2.855,4.536-4.914c1.134-2.057,1.701-4.725,1.701-8.001c0-4.536-1.26-8.231-3.78-11.088
		c-2.52-2.855-6.595-4.284-12.222-4.284h-29.736v31.374h24.948C688.207,43.596,690.853,43.387,693.373,42.966 M690.853,2.142
		c8.568,0,15.266,2.101,20.097,6.3c4.829,4.201,7.245,9.954,7.245,17.262c0,5.461-1.24,10.249-3.717,14.364
		c-2.479,4.117-6.448,6.93-11.907,8.442v0.252c2.603,0.504,4.725,1.345,6.363,2.52c1.638,1.177,2.939,2.583,3.906,4.221
		c0.965,1.638,1.679,3.465,2.142,5.481c0.461,2.016,0.819,4.117,1.071,6.3c0.167,2.185,0.293,4.41,0.378,6.678
		c0.083,2.268,0.293,4.495,0.63,6.678c0.335,2.185,0.819,4.264,1.449,6.237c0.63,1.975,1.575,3.717,2.835,5.229h-13.356
		c-0.841-0.923-1.408-2.183-1.701-3.78c-0.295-1.595-0.484-3.38-0.567-5.355c-0.085-1.973-0.169-4.095-0.252-6.363
		c-0.085-2.268-0.337-4.493-0.756-6.678c-0.337-2.183-0.756-4.262-1.26-6.237c-0.504-1.973-1.303-3.695-2.394-5.166
		c-1.093-1.469-2.52-2.646-4.284-3.528s-4.117-1.323-7.056-1.323h-29.232v38.43h-11.97V2.142H690.853z M549.167,29.421
		c1.805-5.67,4.514-10.688,8.127-15.057c3.61-4.367,8.105-7.853,13.482-10.458C576.15,1.303,582.409,0,589.55,0
		c7.138,0,13.397,1.303,18.774,3.906c5.374,2.605,9.869,6.091,13.482,10.458c3.61,4.369,6.319,9.387,8.127,15.057
		c1.805,5.67,2.709,11.572,2.709,17.703c0,6.133-0.904,12.033-2.709,17.703c-1.808,5.67-4.517,10.69-8.127,15.057
		c-3.613,4.369-8.108,7.834-13.482,10.395c-5.377,2.561-11.636,3.843-18.774,3.843c-7.141,0-13.4-1.282-18.774-3.843
		c-5.377-2.561-9.872-6.026-13.482-10.395c-3.613-4.367-6.322-9.387-8.127-15.057c-1.808-5.67-2.709-11.57-2.709-17.703
		C546.458,40.993,547.359,35.091,549.167,29.421 M560.192,60.543c1.175,4.41,3.024,8.379,5.544,11.907s5.752,6.363,9.702,8.505
		c3.947,2.142,8.65,3.213,14.112,3.213c5.459,0,10.162-1.071,14.112-3.213c3.947-2.142,7.182-4.977,9.702-8.505
		c2.52-3.528,4.366-7.497,5.544-11.907c1.175-4.41,1.764-8.883,1.764-13.419s-0.589-9.009-1.764-13.419
		c-1.178-4.41-3.024-8.379-5.544-11.907c-2.52-3.528-5.755-6.363-9.702-8.505c-3.95-2.142-8.653-3.213-14.112-3.213
		c-5.462,0-10.165,1.071-14.112,3.213c-3.95,2.142-7.182,4.977-9.702,8.505s-4.369,7.497-5.544,11.907
		c-1.178,4.41-1.764,8.883-1.764,13.419S559.014,56.133,560.192,60.543 M534.489,2.142v10.08h-47.124v28.602h41.328v10.08h-41.328
		v41.202h-11.97V2.142H534.489z M417.94,2.142v10.08h-50.148v28.602h46.746v10.08h-46.746v31.122h50.526v10.08h-62.496V2.142H417.94
		z M317.96,14.427c-3.991-2.898-9.094-4.347-15.309-4.347c-2.52,0-4.999,0.252-7.434,0.756c-2.438,0.504-4.599,1.345-6.489,2.52
		c-1.89,1.177-3.402,2.752-4.536,4.725c-1.134,1.975-1.701,4.432-1.701,7.371c0,2.772,0.819,5.02,2.457,6.741
		c1.638,1.723,3.821,3.13,6.552,4.221c2.728,1.093,5.815,1.996,9.261,2.709c3.443,0.715,6.949,1.492,10.521,2.331
		c3.569,0.841,7.075,1.827,10.521,2.961c3.443,1.134,6.53,2.668,9.261,4.599c2.728,1.933,4.914,4.369,6.552,7.308
		c1.638,2.941,2.457,6.637,2.457,11.088c0,4.788-1.071,8.883-3.213,12.285c-2.142,3.402-4.895,6.174-8.253,8.316
		c-3.361,2.142-7.119,3.697-11.277,4.662c-4.158,0.965-8.297,1.449-12.411,1.449c-5.04,0-9.809-0.63-14.301-1.89
		c-4.495-1.26-8.442-3.17-11.844-5.733c-3.402-2.561-6.092-5.837-8.064-9.828c-1.975-3.989-2.961-8.714-2.961-14.175h11.34
		c0,3.78,0.734,7.036,2.205,9.765c1.468,2.731,3.402,4.977,5.796,6.741c2.394,1.764,5.185,3.067,8.379,3.906
		c3.191,0.841,6.467,1.26,9.828,1.26c2.687,0,5.396-0.252,8.127-0.756c2.728-0.504,5.185-1.364,7.371-2.583
		c2.183-1.217,3.947-2.876,5.292-4.977c1.342-2.099,2.016-4.788,2.016-8.064c0-3.107-0.819-5.627-2.457-7.56
		c-1.638-1.931-3.824-3.506-6.552-4.725c-2.731-1.217-5.818-2.205-9.261-2.961c-3.446-0.756-6.952-1.532-10.521-2.331
		c-3.572-0.797-7.078-1.721-10.521-2.772c-3.446-1.049-6.533-2.435-9.261-4.158c-2.731-1.721-4.914-3.947-6.552-6.678
		c-1.638-2.729-2.457-6.152-2.457-10.269c0-4.536,0.923-8.462,2.772-11.781c1.846-3.317,4.303-6.048,7.371-8.19
		c3.065-2.142,6.552-3.737,10.458-4.788C295.028,0.526,299.038,0,303.155,0c4.618,0,8.902,0.547,12.852,1.638
		c3.947,1.093,7.412,2.815,10.395,5.166c2.98,2.353,5.333,5.314,7.056,8.883c1.72,3.571,2.665,7.834,2.835,12.789h-11.34
		C324.279,22.009,321.948,17.325,317.96,14.427 M171.044,29.421c1.806-5.67,4.515-10.688,8.127-15.057
		c3.611-4.367,8.106-7.853,13.482-10.458C198.028,1.303,204.287,0,211.427,0c7.139,0,13.398,1.303,18.774,3.906
		c5.375,2.605,9.87,6.091,13.482,10.458c3.611,4.369,6.32,9.387,8.127,15.057c1.806,5.67,2.709,11.572,2.709,17.703
		c0,6.133-0.903,12.033-2.709,17.703c-1.807,5.67-4.516,10.69-8.127,15.057c-3.612,4.369-8.107,7.834-13.482,10.395
		c-5.376,2.561-11.635,3.843-18.774,3.843c-7.14,0-13.399-1.282-18.774-3.843c-5.376-2.561-9.871-6.026-13.482-10.395
		c-3.612-4.367-6.321-9.387-8.127-15.057c-1.807-5.67-2.709-11.57-2.709-17.703C168.335,40.993,169.237,35.091,171.044,29.421
		 M182.069,60.543c1.176,4.41,3.024,8.379,5.544,11.907c2.52,3.528,5.753,6.363,9.702,8.505c3.948,2.142,8.651,3.213,14.112,3.213
		c5.46,0,10.163-1.071,14.112-3.213c3.948-2.142,7.182-4.977,9.702-8.505c2.52-3.528,4.367-7.497,5.544-11.907
		c1.176-4.41,1.764-8.883,1.764-13.419s-0.588-9.009-1.764-13.419c-1.177-4.41-3.024-8.379-5.544-11.907
		c-2.52-3.528-5.754-6.363-9.702-8.505c-3.949-2.142-8.652-3.213-14.112-3.213c-5.461,0-10.164,1.071-14.112,3.213
		c-3.949,2.142-7.182,4.977-9.702,8.505c-2.52,3.528-4.368,7.497-5.544,11.907c-1.177,4.41-1.764,8.883-1.764,13.419
		S180.892,56.133,182.069,60.543 M71.505,29.421c1.805-5.67,4.514-10.688,8.127-15.057c3.611-4.367,8.105-7.853,13.482-10.458
		C98.489,1.303,104.747,0,111.888,0c7.139,0,13.397,1.303,18.774,3.906c5.375,2.605,9.869,6.091,13.482,10.458
		c3.611,4.369,6.32,9.387,8.127,15.057c1.805,5.67,2.709,11.572,2.709,17.703c0,6.133-0.904,12.033-2.709,17.703
		c-1.807,5.67-4.516,10.69-8.127,15.057c-3.613,4.369-8.107,7.834-13.482,10.395c-5.377,2.561-11.635,3.843-18.774,3.843
		c-7.141,0-13.399-1.282-18.774-3.843c-5.377-2.561-9.871-6.026-13.482-10.395c-3.613-4.367-6.322-9.387-8.127-15.057
		c-1.807-5.67-2.709-11.57-2.709-17.703C68.796,40.993,69.698,35.091,71.505,29.421 M82.53,60.543
		c1.175,4.41,3.024,8.379,5.544,11.907c2.52,3.528,5.753,6.363,9.702,8.505c3.947,2.142,8.651,3.213,14.112,3.213
		c5.459,0,10.163-1.071,14.112-3.213c3.947-2.142,7.182-4.977,9.702-8.505c2.52-3.528,4.367-7.497,5.544-11.907
		c1.175-4.41,1.764-8.883,1.764-13.419s-0.589-9.009-1.764-13.419c-1.177-4.41-3.024-8.379-5.544-11.907
		c-2.52-3.528-5.755-6.363-9.702-8.505c-3.949-2.142-8.653-3.213-14.112-3.213c-5.461,0-10.165,1.071-14.112,3.213
		c-3.949,2.142-7.182,4.977-9.702,8.505c-2.52,3.528-4.369,7.497-5.544,11.907c-1.177,4.41-1.764,8.883-1.764,13.419
		S81.353,56.133,82.53,60.543 M11.97,2.142v79.884h47.628v10.08H0V2.142H11.97z"/>
</g>
</svg>
